<svg xmlns="http://www.w3.org/2000/svg" width="140" height="48" viewBox="0 0 140 48">
    <g fill="#FEFEFE" fill-rule="evenodd">
        <path d="M7.015 45.213c-.076-5.732-.113-18.2-.113-22.718l7.686.075c1.969.02 3.182-.336 3.687-4.297l-11.373-.086V7.852l6.729.022c2.219.006 3.28.01 3.936-.3.658-.678 1.365-1.667 1.77-4.017-2.426-.003-10.983-.064-12.786-.015-2.201.102-5.144.513-6.041.77C.609 6.126.659 7.524.659 9.8v36.788c0 .252.044.429.11.57.506-.165.997-.336 1.515-.501 1.518-.5 3.109-.976 4.73-1.444M27.77 29.404V4.198c0-3.145-.203-3.407-.97-3.407-1.069 0-4.375.471-5.387.942.1 1.044.201 2.455.201 5.539v34.102c0 .099.014.174.03.249a208.52 208.52 0 0 1 6.278-1.19c-.082-2.867-.152-8.9-.152-11.03M41.828 16.398h.051c2.635.018 3.828 2.14 3.775 4.727 0 .581-.31 1.106-.672 1.102-1.242.094-5.218.11-7.33-.068.205-3.945 2.266-5.774 4.176-5.76m1.187 21.754c1.81.029 4.04-.516 4.817-.875.885-.409 2.702-2.55 2.702-4.88l-.102-.105c-.885.41-3.326 1.17-5.813 1.134-3.515-.05-6.812-3.003-7.068-7.637 2.83.134 8.21.142 9.504-.161 2.128-.506 4.21-1.226 4.365-2.017.103-.423.156-1.005.156-1.747-.053-4.236-2.602-9.12-9.18-9.154-6.955-.036-11.003 6.03-11.003 12.382 0 7.715 4.101 12.937 11.622 13.06M56.809 37.376c1.705-2.653 4.316-6.26 5.54-8.23 1.423 2.413 3.423 5.262 4.583 7.197a1.6 1.6 0 0 0 .957.82c1.262-.004 2.524-.007 3.789-.005l.148.004c1.026-.083 1.902-.204 2.465-.33v-.16c-2.654-4.155-5.827-8.946-7.94-12.38 1.954-2.808 6.4-9.18 7.249-10.298v-.16c-.85-.379-2.968-.977-4.291-.984-.687-.004-.951.368-1.427 1.113-1.266 1.964-2.847 4.35-4.27 6.522-1.577-2.46-3.311-5.343-4.201-6.73-.368-.534-.84-.96-1.415-.963-1.622-.009-4.754.664-5.588 1.03v.158c1.25 1.703 5.903 9.22 7.213 11.147-2.933 4.427-5.128 7.315-7.736 11.305l-.974 1.294c.414-.027.824-.063 1.24-.087 1.543-.112 3.096-.197 4.658-.263M79.714 8.777c2.03.007 3.474-1.598 3.474-3.638 0-1.986-1.231-3.49-3.26-3.49h-.053c-1.335-.001-3.517 1.015-3.517 3.638 0 2.463 1.704 3.484 3.356 3.49M81.476 37.264c1.177-.143 1.552-.405 1.552-1.371V16.625c0-3.114-.216-3.383-.962-3.387-1.123-.006-4.484.244-5.707.612.106 1.07.213 2.732.213 5.996v9.152c0 3.064-.104 6.118-.157 8.307.88.027 1.76.057 2.658.095.974-.017 1.82-.058 2.403-.136M88.87 17.848v13.488c0 3.712 1.776 7.237 7.281 7.327 2.384.039 4.663-.52 5.967-1.636.98-.797 1.197-2.472.925-3.775l-.162-.11c-.655.424-2.176.943-3.804.92-1.843-.026-3.305-1.019-3.574-3.665-.218-2.27-.27-8.132-.054-12.555 2.274.016 4.008-.08 5.256-.179 1.086-.1 2.283-.254 2.937-3.985l-8.032-.044c0-1.51.11-3.453.325-5.071-2.108.209-3.132.852-4.048 1.603-.918.75-5.274 4.602-6.024 6.155 0 .538 1.02 1.512 3.006 1.527M139.848 47.597c-.113-1.597-.225-14.098-.225-16.792V4.365c0-3.3-.226-3.574-1.066-3.574-1.177 0-4.813.494-5.93.987.114 1.096.224 2.577.224 5.81v38.077c2.319.64 4.564 1.297 6.749 1.97.08-.013.185-.025.248-.038M112.768 34.196c-1.395-1.465-1.71-2.84-1.988-2.574-.296.2-.45 1.952.944 3.417 1.369 1.488 3.262 1.593 3.516 1.348.324-.22-1.102-.703-2.472-2.19"/>
        <path d="M116.397 38.61c-4.269-.066-7.716-3.332-7.716-7.291 0-5.263 7.716-11.823 7.716-16.098v.002c0 4.273 7.764 10.998 7.764 16.295 0 3.987-3.484 7.161-7.764 7.093m.337-25.51l-.066-.001c-7.345-.038-12.652 8.122-12.652 15.497 0 7.695 5.027 12.766 12.108 12.888 7.719.134 12.784-5.48 12.784-13.14 0-6.794-4.233-15.203-12.173-15.244M127.217 5.24c.213 0 .406 0 .576-.04a.462.462 0 0 0 .362-.463c0-.273-.213-.442-.577-.443-.127 0-.298 0-.361.021v.925zm0 .357v.82c0 .147-.022.231-.15.251-.085 0-.276 0-.406.02v-2.71c.215-.02.556-.083.898-.082.747 0 1.195.274 1.195.842 0 .337-.3.588-.6.693.152.252.557.926.834 1.179v.063a1.935 1.935 0 0 1-.384.041.44.44 0 0 1-.363-.19 7.15 7.15 0 0 1-.47-.716c-.084-.168-.193-.231-.554-.211zm.448 1.893c1.195.003 2.072-.9 2.072-2.182 0-1.22-.834-2.147-2.114-2.149h-.022c-1.153 0-2.004.923-2.004 2.141 0 1.28.85 2.186 2.068 2.19zm-.717.389c-.167-.056-.343-.109-.511-.163-.924-.424-1.457-1.33-1.457-2.397 0-1.49 1-2.686 2.663-2.685h.022c1.6.002 2.712 1.139 2.712 2.696 0 1.473-1.047 2.648-2.734 2.643-.201 0-.391-.02-.572-.053a9.479 9.479 0 0 0-.123-.041z"/>
    </g>
</svg>
