<svg xmlns="http://www.w3.org/2000/svg" width="83" height="55" viewBox="0 0 83 55">
    <path fill="#809293" fill-rule="evenodd" d="M62.11 15.488l-.093.002c-.593 0-1.074-.48-1.074-1.071V9.747c-5.624.413-10.673 3.016-14.3 6.938a23.946 23.946 0 0 1 4.644 14.194 23.954 23.954 0 0 1-4.998 14.66 21.618 21.618 0 0 0 10.76 6.62c1.58.44 3.215.674 4.88.693l.056.002a.49.49 0 0 1 .049 0l.084.003c10.33 0 18.733-8.383 18.733-18.685 0-10.303-8.404-18.685-18.741-18.684M44.907 43.807a21.818 21.818 0 0 0 4.231-12.928c0-4.635-1.45-8.937-3.917-12.486-2.719 3.612-4.34 8.08-4.34 12.883 0 4.618 1.474 8.964 4.026 12.53M27.077 8.904L27 8.905c-.292-.014-.565-.108-.77-.309a1.073 1.073 0 0 1-.32-.763V2.191A25.308 25.308 0 0 0 9.412 9.754C4.728 14.521 2.15 20.824 2.15 27.5c0 11.525 7.802 21.613 18.993 24.536 1.857.52 3.782.793 5.732.815l.075.003H27l.105.003c6.51 0 12.37-2.835 16.406-7.328a23.653 23.653 0 0 1-4.777-14.253c0-5.492 1.926-10.584 5.134-14.634-4.047-4.731-10.067-7.74-16.79-7.74M62.118 55l-.05-.002-.066.002-.113-.006c-1.836-.02-3.66-.28-5.403-.767A23.727 23.727 0 0 1 44.889 47.2C40.467 51.991 34.132 55 27.104 55l-.061-.002c-.028.002-.056.003-.083.001l-.122-.006a24.224 24.224 0 0 1-6.259-.89C8.463 50.94 0 40 0 27.5c0-7.24 2.797-14.075 7.876-19.246A27.466 27.466 0 0 1 26.961.001L26.985 0a1.075 1.075 0 0 1 1.074 1.071v5.706c6.86.267 12.994 3.398 17.234 8.224 4.23-4.454 10.152-7.303 16.7-7.45h.024a1.075 1.075 0 0 1 1.074 1.072v4.744C74.156 13.875 83 23.013 83 34.172 83 45.657 73.632 55 62.118 55"/>
</svg>
