<svg xmlns="http://www.w3.org/2000/svg" width="173" height="181" viewBox="0 0 173 181">
    <g fill="#809293" fill-rule="nonzero">
        <path d="M15.814 105.034c-.95.635-2.274.954-3.976.954-1.643 0-3.462-.278-5.456-.835-1.996-.557-3.638-1.187-4.929-1.89l-.792 5.773c2.856 1.62 6.659 2.431 11.411 2.431 3.99 0 7.07-.878 9.241-2.637 2.171-1.758 3.265-4.248 3.286-7.474 0-2.4-.694-4.35-2.083-5.843-1.389-1.496-3.56-2.781-6.512-3.854-.234-.1-.567-.225-.997-.382-.43-.156-.685-.242-.763-.263-2.444-.898-4.087-1.626-4.928-2.183-.84-.557-1.262-1.332-1.262-2.329 0-1.054.435-1.84 1.306-2.359.87-.517 2.077-.775 3.623-.775 2.777 0 5.701.712 8.773 2.138l1.906-5.303c-3.11-1.544-6.717-2.317-10.826-2.317-3.794 0-6.75.78-8.874 2.345C1.84 81.795.78 84.04.78 86.97c0 2.422.655 4.343 1.965 5.758 1.31 1.417 3.452 2.7 6.425 3.854.253.1.811.303 1.673.617 2.503.956 4.2 1.759 5.09 2.401.89.646 1.335 1.524 1.335 2.639-.02 1.227-.505 2.16-1.453 2.795zM33.155 82.954l.97 2.669c3.851-1.466 7.088-2.199 9.707-2.199 1.84 0 3.207.444 4.108 1.333.9.89 1.35 2.312 1.35 4.265v1.7c-.51.058-1.201.126-2.084.204-.878.077-1.672.158-2.375.233-.705.078-1.36.158-1.967.235-4.418.43-7.724 1.45-9.913 3.064-2.191 1.611-3.286 4.085-3.286 7.428 0 3.104.923 5.484 2.772 7.134 1.847 1.65 4.269 2.477 7.259 2.477 2.191 0 4.054-.369 5.59-1.1 1.534-.733 3.105-1.879 4.707-3.443 0 .076.207.731.616 1.965.413 1.227.626 1.883.648 1.962h5.689v-21.01c0-4.22-.988-7.271-2.962-9.157-1.975-1.886-5.134-2.828-9.476-2.828-4.418 0-8.525.812-12.32 2.434.018.038.342.917.967 2.634zM49.26 101.68c-.569 1.213-1.51 2.24-2.832 3.091-1.319.85-2.87 1.273-4.649 1.273-1.484 0-2.63-.366-3.43-1.098-.803-.732-1.204-1.783-1.204-3.15 0-1.992.722-3.439 2.17-4.336 1.45-.897 3.727-1.483 6.835-1.759.079 0 .602-.04 1.57-.117.969-.077 1.48-.118 1.541-.118v6.214h-.001zM63.396 66.81v31.382c0 2.325.166 4.268.498 5.831.334 1.566.92 2.91 1.76 4.045.842 1.133 1.991 1.958 3.448 2.475 1.457.517 3.29.776 5.5.776.55 0 1.144-.033 1.791-.102.643-.07 1.177-.137 1.599-.206.42-.07.859-.15 1.318-.249.461-.1.7-.147.72-.147l-.206-5.478c-1.505.216-2.748.321-3.726.321-1.975 0-3.304-.512-3.99-1.538-.684-1.023-1.025-2.983-1.025-5.873V66.31l-7.687.498zM98.699 77.886c-4.987 0-8.849 1.5-11.586 4.499-2.74 3-4.107 7.096-4.107 12.291 0 5.04 1.368 9.104 4.107 12.19 2.737 3.087 6.492 4.632 11.264 4.632 4.967 0 8.829-1.52 11.586-4.558 2.758-3.036 4.138-7.125 4.138-12.264 0-5.077-1.366-9.146-4.093-12.204-2.73-3.057-6.498-4.586-11.31-4.586zm5.75 24.938c-1.309 1.893-3.267 2.84-5.867 2.84-2.62 0-4.594-.947-5.925-2.84-1.331-1.897-1.996-4.602-1.996-8.118 0-3.574.66-6.305 1.981-8.19 1.32-1.884 3.28-2.827 5.882-2.827 2.64 0 4.616.937 5.925 2.813 1.31 1.876 1.965 4.602 1.965 8.174 0 3.536-.657 6.251-1.965 8.148zM148.902 90.517c0-4.102-.932-7.234-2.8-9.393-1.87-2.159-4.68-3.238-8.434-3.238-4.008 0-7.658 1.622-10.943 4.866l-.85-4.072h-6.19v32.202h7.687V95.207c0-3.166.186-5.51.556-7.032.626-1.29 1.629-2.362 3.006-3.21 1.38-.852 2.9-1.275 4.563-1.275 2.132 0 3.61.645 4.43 1.934.821 1.288 1.242 3.233 1.26 5.831v19.427h7.714V90.517h.001zM2.26 72.167c.441.192.951.29 1.518.29.817 0 1.478-.155 1.968-.457l.128-.082-.22-.867-.225.101c-1.113.501-2.015.477-2.686.162a1.974 1.974 0 0 1-.765-.608 2.89 2.89 0 0 1-.442-.917 4 4 0 0 1-.15-1.132c0-.415.054-.805.162-1.158.108-.353.264-.666.466-.928a2 2 0 0 1 .762-.608 2.493 2.493 0 0 1 1.069-.223c.576 0 1.098.14 1.548.413l.176.106.504-.82-.18-.108c-.566-.336-1.257-.507-2.053-.507-.727 0-1.37.168-1.91.501-.54.334-.95.793-1.222 1.362-.269.561-.403 1.213-.403 1.936 0 .544.072 1.049.213 1.502.147.47.354.868.641 1.217.281.353.653.629 1.102.825zM8.453 72.35v-3.162c0-.424.128-.776.392-1.083.257-.297.565-.442.942-.442.112 0 .22.008.322.025l.223.04.077-.905-.192-.028c-.573-.089-1.013-.01-1.452.291a2.555 2.555 0 0 0-.405.34l-.025-.637H7.45v.206c0 .41 0 2.125.008 5.15v.206h.995zM16.073 69.288c0-.774-.2-1.403-.599-1.873-.41-.476-.953-.72-1.621-.72a2.227 2.227 0 0 0-1.743.85c-.439.541-.66 1.234-.66 2.062 0 .866.227 1.56.678 2.073.46.521 1.084.784 1.853.784.69 0 1.32-.17 1.87-.51l.126-.077-.19-.846-.241.128c-.248.133-.497.241-.74.318-.227.073-.494.11-.813.11-.452 0-.806-.166-1.08-.506-.248-.305-.39-.72-.425-1.234h3.581l.004-.559zm-3.541-.325c.063-.387.198-.698.403-.949.228-.277.523-.412.902-.412.372 0 .652.124.86.38.185.229.293.56.319.98h-2.484v.001zM20.12 69.015c-.397.031-.732.08-1.023.151a3.105 3.105 0 0 0-.809.31c-.253.14-.45.33-.583.559-.136.23-.202.502-.202.807 0 .52.172.925.51 1.207.325.274.763.415 1.301.415.634 0 1.162-.198 1.572-.59.023.15.038.259.053.317l.036.162h.829v-3.645c0-.738-.151-1.245-.466-1.555-.31-.303-.806-.456-1.474-.456-.311 0-.641.044-.98.133-.343.096-.61.208-.818.34l-.138.089.056.155c.02.06.054.145.1.25l.168.424.209-.115a2.946 2.946 0 0 1 1.433-.367c.337 0 .57.077.714.235.144.154.217.407.217.747v.38c-.185.015-.418.029-.705.047zm.158 2.257a1.532 1.532 0 0 1-.947.314c-.26 0-.472-.066-.623-.19-.14-.116-.209-.293-.209-.543 0-.315.11-.526.345-.668.273-.166.778-.282 1.486-.348l.478-.038.004.606c-.09.378-.266.66-.534.867zM24.142 65.63l-.156 1.184-.699.066-.087.748h.754v3.374c0 .498.122.868.363 1.104.243.236.601.35 1.094.35.223 0 .532-.038.92-.116l.177-.033-.047-.885-.247.065c-.593.155-1.012.127-1.153-.023-.036-.036-.121-.168-.121-.586v-3.25h1.504v-.838H24.94v-1.21l-.798.05zM30.059 66.696a2.242 2.242 0 0 0-1.743.85c-.436.54-.657 1.233-.657 2.061 0 .864.227 1.56.678 2.073.457.521 1.08.784 1.85.784.693 0 1.321-.17 1.873-.51l.125-.077-.192-.846-.24.128a4.09 4.09 0 0 1-.739.318c-.223.073-.498.11-.814.11-.45 0-.802-.166-1.077-.506-.251-.306-.395-.721-.429-1.234h3.581l.004-.558c0-.773-.2-1.403-.599-1.872-.406-.48-.95-.721-1.621-.721zm-1.319 2.267c.065-.383.2-.7.404-.949.23-.277.525-.412.903-.412.37 0 .651.124.86.378.186.233.293.563.32.982H28.74v.001zM37.178 72.213a1.91 1.91 0 0 0 .484-.33l.05.47h.876V64.72l-.976.091v2.373a1.872 1.872 0 0 0-.44-.267 2.633 2.633 0 0 0-1.041-.224c-.71 0-1.293.275-1.73.819-.424.525-.639 1.217-.639 2.05 0 .886.208 1.594.622 2.103.422.525 1.017.79 1.766.79.355 0 .7-.081 1.028-.243zm-1.915-1a1.628 1.628 0 0 1-.257-.434 2.752 2.752 0 0 1-.156-.558 3.995 3.995 0 0 1-.049-.646c0-.26.027-.512.08-.75.052-.232.133-.451.24-.647.1-.18.24-.328.411-.436.168-.103.368-.158.595-.158 1 0 1.485.683 1.485 2.089 0 .294-.03.559-.09.786-.058.226-.147.43-.262.604a1.122 1.122 0 0 1-.449.38c-.327.16-.825.198-1.18.04a1.004 1.004 0 0 1-.368-.27zM45.703 65.478c.106 0 .32.021.587.052l.206.026.092-.794-.2-.026a6.176 6.176 0 0 0-.75-.075c-.552 0-.974.183-1.251.542-.268.345-.397.87-.397 1.6l-.79.068-.08.757h.872v4.723h.996v-4.723h1.254v-.838h-1.254c.004-.521.06-.88.168-1.074.032-.059.133-.238.547-.238zM48.508 72.079c.388.254.84.383 1.345.383.525 0 .991-.13 1.386-.388.39-.257.687-.608.885-1.04.197-.43.292-.908.292-1.46 0-.545-.091-1.02-.28-1.448a2.42 2.42 0 0 0-.873-1.04c-.384-.26-.846-.39-1.37-.39-.392 0-.754.074-1.08.222a2.3 2.3 0 0 0-.817.619 2.798 2.798 0 0 0-.502.92 3.544 3.544 0 0 0-.173 1.129c0 .533.1 1.02.297 1.454.207.432.506.782.89 1.039zm.022-3.533c.105-.286.279-.524.512-.703.228-.174.501-.26.834-.26.51 0 .88.17 1.12.519.257.364.387.863.387 1.482 0 .403-.057.757-.166 1.054-.1.283-.267.518-.493.69a1.33 1.33 0 0 1-.826.258c-.498 0-.867-.175-1.126-.53-.275-.375-.41-.852-.41-1.457a2.921 2.921 0 0 1 .168-1.053zM55.114 72.35v-3.162c0-.424.13-.776.394-1.083.26-.297.567-.442.944-.442.114 0 .218.008.32.025l.223.038.078-.903-.192-.028c-.548-.084-1.005-.012-1.454.291-.147.099-.28.215-.401.34l-.024-.637h-.887v.206l.009 5.15v.206h.99zM6.382 117.819c-.58-.209-1.275-.316-2.09-.316H.847v10.36h1.884v-3.975c.4.036.92.056 1.56.056.75 0 1.385-.084 1.916-.253.53-.169.943-.41 1.232-.724.294-.313.503-.663.628-1.049.13-.375.19-.816.19-1.308 0-.712-.169-1.3-.504-1.773a2.858 2.858 0 0 0-1.372-1.018zm-.015 3.4c-.033.162-.095.331-.193.504a1.311 1.311 0 0 1-.386.436c-.165.12-.39.213-.678.29-.292.075-.628.108-1.023.108-.846 0-1.298-.002-1.353-.008v-3.62h1.574c.667 0 1.184.15 1.553.445.367.295.553.728.553 1.295a3.28 3.28 0 0 1-.047.55zM20.345 120.377c0-.467-.059-.871-.183-1.21a2.214 2.214 0 0 0-.51-.829 2.27 2.27 0 0 0-.84-.503 4.782 4.782 0 0 0-1.098-.257c-.38-.044-.831-.074-1.352-.074h-3.833v10.36h1.893v-4.44l1.6.012c.45 0 .717.005.795.01.111.178.392.749.85 1.72l1.204 2.7h2.09l-1.539-3.188c-.378-.776-.692-1.306-.946-1.594 1.247-.436 1.869-1.337 1.869-2.707zm-2.236 1.285c-.32.256-.848.392-1.58.392l-1.059-.002-1.05-.004v-3.126h2.193c.672 0 1.167.122 1.49.362.324.24.487.612.487 1.122 0 .574-.16.995-.48 1.256zM24.862 122.696c0 1.658.45 2.959 1.35 3.903.9.94 2.13 1.411 3.69 1.411 1.551 0 2.776-.47 3.678-1.417.908-.942 1.357-2.241 1.357-3.89 0-1.67-.45-2.974-1.345-3.913-.903-.934-2.127-1.399-3.69-1.399-1.554 0-2.783.462-3.686 1.397-.903.938-1.354 2.242-1.354 3.908zm2.774-2.778c.516-.667 1.276-.996 2.275-.996 1 0 1.755.33 2.262.995.51.663.77 1.594.77 2.802 0 1.184-.26 2.109-.77 2.755-.507.65-1.266.978-2.27.978-1 0-1.756-.327-2.27-.982-.512-.648-.77-1.571-.77-2.75.001-1.2.26-2.134.773-2.802zM45.692 119.052l.07-1.516h-6.118v10.327h1.9v-4.378h3.943v-1.5h-3.943v-2.933zM56.51 119.052l.076-1.516h-6.268v10.327h6.28l.065-1.523h-4.428v-3.109h4.062v-1.516h-4.062v-2.663zM64.319 126.446a5.367 5.367 0 0 1-1.52-.227c-.521-.15-1-.347-1.444-.592l-.468 1.519c.99.574 2.108.857 3.351.857 1.184 0 2.12-.264 2.82-.788.695-.53 1.04-1.287 1.04-2.27 0-.823-.203-1.466-.606-1.925-.41-.461-1.083-.847-2.033-1.154a33.869 33.869 0 0 0-.86-.277 16.385 16.385 0 0 1-.833-.275c-.57-.169-.854-.545-.854-1.122.023-.465.173-.798.468-.996.284-.2.712-.3 1.287-.3.79 0 1.643.208 2.565.62l.581-1.393c-.9-.513-1.98-.77-3.23-.77-1.097 0-1.98.254-2.649.763-.666.507-1 1.228-1 2.166 0 1.334.7 2.245 2.086 2.732.112.04.286.103.534.182.248.078.51.157.796.24.28.08.452.13.51.15.868.248 1.304.696 1.304 1.346 0 .488-.16.865-.471 1.124-.309.26-.77.39-1.374.39zM75.6 126.446c-.494 0-1-.074-1.52-.227-.52-.15-1-.347-1.442-.592l-.469 1.519c.991.574 2.106.857 3.354.857 1.18 0 2.12-.264 2.814-.788.696-.53 1.053-1.287 1.053-2.27 0-.823-.21-1.466-.62-1.925-.404-.461-1.08-.847-2.025-1.154a58.314 58.314 0 0 0-.86-.277c-.446-.14-.72-.228-.836-.275-.569-.169-.85-.545-.85-1.122.017-.465.17-.798.459-.996.29-.2.722-.3 1.289-.3.793 0 1.647.208 2.569.62l.576-1.393c-.904-.513-1.979-.77-3.226-.77-1.096 0-1.98.254-2.646.763-.666.507-.997 1.228-.997 2.166 0 1.334.694 2.245 2.077 2.732.11.04.287.103.537.182.25.078.51.157.79.24.286.08.46.13.517.15.866.248 1.297.696 1.297 1.346 0 .488-.156.865-.466 1.124-.307.26-.769.39-1.375.39zM83.952 117.536h1.912v10.327h-1.912zM91.982 118.789c-.903.937-1.357 2.241-1.357 3.909 0 1.657.454 2.958 1.357 3.903.9.94 2.128 1.41 3.687 1.41 1.551 0 2.775-.47 3.678-1.416.908-.943 1.36-2.242 1.36-3.891 0-1.67-.448-2.974-1.352-3.913-.899-.934-2.12-1.399-3.678-1.399-1.562 0-2.792.46-3.695 1.397zm5.96 1.128c.51.663.768 1.594.768 2.802 0 1.184-.257 2.109-.767 2.755-.51.65-1.267.978-2.266.978-1 0-1.758-.327-2.276-.982-.511-.648-.77-1.571-.77-2.75 0-1.2.259-2.134.772-2.802.52-.667 1.277-.996 2.275-.996 1 0 1.755.33 2.265.995zM112.098 127.863h2.056v-10.327h-1.744v5.222c0 .06.022.899.05 2.512-.073-.11-.19-.295-.357-.548a59.558 59.558 0 0 1-.369-.545c-.244-.375-.926-1.435-2.053-3.174-1.125-1.738-1.87-2.896-2.238-3.467h-2.031v10.327h1.736v-5.203c0-.503-.023-1.372-.054-2.615l.337.556 4.667 7.262zM120.13 127.863l1.027-2.92h3.621l1.022 2.92h1.966l-3.746-10.333h-2.083l-3.805 10.333h1.998zm2.858-8.544c.024.09.455 1.49 1.303 4.203h-2.654l1.351-4.203zM131.69 117.536v10.327h6.177l.06-1.523H133.6v-8.804zM145.115 126.446a5.355 5.355 0 0 1-1.52-.227c-.518-.15-1-.347-1.444-.592l-.463 1.519c.982.574 2.103.857 3.348.857 1.18 0 2.122-.264 2.816-.788.698-.53 1.044-1.287 1.044-2.27 0-.823-.202-1.466-.607-1.925-.41-.461-1.089-.847-2.03-1.154a55.423 55.423 0 0 0-.862-.277 12.619 12.619 0 0 1-.83-.275c-.572-.169-.855-.545-.855-1.122.016-.465.17-.798.463-.996.29-.2.714-.3 1.287-.3.79 0 1.648.208 2.571.62l.579-1.393c-.909-.513-1.98-.77-3.228-.77-1.1 0-1.983.254-2.651.763-.666.507-1.001 1.228-1.001 2.166 0 1.334.698 2.245 2.09 2.732.104.04.284.103.526.182.248.078.518.157.797.24.28.08.453.13.518.15.864.248 1.3.696 1.3 1.346 0 .488-.16.865-.47 1.124-.314.26-.771.39-1.378.39z"/>
        <path d="M82.472.348C47.797.348 15.752 20.564.834 51.854l1.402.667c14.662-30.75 46.156-50.62 80.236-50.62 48.98 0 88.826 39.803 88.826 88.727 0 48.922-39.848 88.724-88.826 88.724-27.246 0-52.604-12.234-69.577-33.568l-1.215.966c17.269 21.706 43.071 34.154 70.794 34.154 49.836 0 90.379-40.497 90.379-90.275C172.852 40.846 132.307.348 82.473.348z"/>
    </g>
</svg>
