<svg xmlns="http://www.w3.org/2000/svg" xmlns:xlink="http://www.w3.org/1999/xlink" width="31" height="24" viewBox="0 0 31 24">
    <defs>
        <path id="a" d="M27.814 5.981c.02.263.02.525.02.788C27.833 14.775 21.44 24 9.755 24c-3.6 0-6.943-.994-9.756-2.719.511.056 1.003.075 1.534.075 2.97 0 5.705-.956 7.888-2.587-2.793-.056-5.134-1.8-5.94-4.2.393.056.786.093 1.2.093.57 0 1.14-.075 1.671-.206-2.91-.562-5.094-3-5.094-5.944v-.074c.846.45 1.83.73 2.872.768C2.419 8.12 1.298 6.262 1.298 4.162c0-1.125.315-2.156.866-3.056 3.127 3.675 7.828 6.075 13.1 6.338a6.53 6.53 0 0 1-.157-1.388C15.107 2.72 17.939 0 21.46 0c1.83 0 3.482.731 4.642 1.912A12.888 12.888 0 0 0 30.135.45c-.473 1.406-1.476 2.588-2.794 3.337A13.232 13.232 0 0 0 31 2.85a13.328 13.328 0 0 1-3.186 3.131z"/>
    </defs>
    <use fill="#FFF" fill-rule="evenodd" xlink:href="#a"/>
</svg>
