<svg xmlns="http://www.w3.org/2000/svg" width="17" height="11" viewBox="0 0 17 11">
    <path fill="#FFF" fill-rule="evenodd" d="M6.56 7.097l-.001-4.143 4.467 2.08L6.56 7.096zm9.806-4.861S16.205 1.22 15.71.773c-.629-.587-1.334-.59-1.656-.625C11.74 0 8.27 0 8.27 0h-.007S4.792 0 2.479.148C2.156.182 1.452.186.822.773.327 1.22.165 2.236.165 2.236S0 3.429 0 4.622V5.74c0 1.194.165 2.388.165 2.388S.327 9.143.822 9.59c.63.588 1.456.568 1.823.63 1.323.113 5.621.149 5.621.149s3.473-.006 5.788-.154c.322-.035 1.027-.037 1.656-.625.495-.447.656-1.462.656-1.462s.166-1.194.166-2.388V4.622c0-1.193-.166-2.386-.166-2.386z"/>
</svg>
